<?xml version="1.0" standalone="no"?>
<!DOCTYPE svg PUBLIC "-//W3C//DTD SVG 20010904//EN"
 "http://www.w3.org/TR/2001/REC-SVG-20010904/DTD/svg10.dtd">
<svg version="1.0" xmlns="http://www.w3.org/2000/svg"
 width="450.000000pt" height="450.000000pt" viewBox="0 0 450.000000 450.000000"
 preserveAspectRatio="xMidYMid meet">

<g transform="translate(0.000000,450.000000) scale(0.100000,-0.100000)"
fill="#000000" stroke="none">
<path d="M886 4411 c-3 -5 38 -12 92 -16 208 -15 360 -77 514 -209 27 -23 48
-44 48 -48 0 -5 -92 -8 -205 -8 -220 0 -237 -3 -283 -53 -13 -14 -29 -44 -36
-68 -12 -39 -17 -44 -62 -57 -49 -14 -93 -42 -65 -42 7 0 38 7 68 16 30 9 56
14 57 12 2 -1 28 -68 58 -148 l56 -144 -71 -71 c-40 -38 -74 -69 -76 -68 -7 4
-126 -140 -188 -225 -69 -95 -187 -325 -227 -439 l-26 -73 36 -15 c20 -8 42
-15 48 -15 38 0 146 -94 146 -126 0 -43 -190 21 -239 80 -14 17 -41 22 -41 7
0 -17 74 -74 126 -97 29 -13 75 -26 103 -30 28 -4 51 -10 51 -14 0 -19 -47
-64 -84 -81 -49 -22 -109 -24 -164 -5 l-41 15 -7 -66 c-12 -117 2 -418 26
-528 30 -143 92 -322 154 -446 48 -96 152 -262 205 -329 23 -28 17 -30 129 41
43 26 67 34 118 37 35 2 71 1 80 -2 15 -6 13 -11 -12 -37 -47 -49 -124 -93
-193 -110 -76 -19 -93 -46 -26 -41 58 4 175 63 229 115 l47 45 10 -25 c15 -41
10 -114 -12 -160 -11 -24 -41 -61 -67 -82 l-46 -40 25 -20 c61 -52 224 -155
324 -205 269 -134 553 -194 865 -183 278 10 502 67 748 191 114 57 278 168
365 245 l68 61 -157 0 -157 0 -49 53 c-44 47 -138 214 -138 245 0 9 121 12
519 12 464 0 520 2 525 16 18 46 43 44 -564 44 -314 -1 -575 2 -580 5 -15 10
-12 91 4 104 8 7 41 11 78 10 59 -2 65 0 101 34 60 54 138 66 205 31 24 -12
28 -10 74 39 50 52 50 52 46 112 -3 46 -14 80 -46 146 -36 71 -44 99 -49 161
l-6 76 32 17 c39 20 111 92 111 111 0 24 -19 15 -58 -28 -43 -47 -90 -72 -109
-56 -18 15 -16 48 5 83 l19 30 -50 55 c-27 30 -70 91 -95 135 l-47 79 -7 -74
c-63 -626 -66 -644 -86 -661 -18 -14 -79 -16 -601 -15 -472 1 -583 3 -590 14
-4 8 -11 57 -15 110 -7 103 -25 357 -51 712 -8 118 -19 276 -25 351 -5 74 -10
147 -10 162 l0 27 726 0 c716 0 726 0 721 -20 -3 -13 3 -24 19 -35 44 -29 83
-130 119 -310 22 -110 50 -201 97 -322 30 -79 44 -103 58 -103 10 0 33 -18 50
-40 47 -59 73 -69 207 -77 111 -6 119 -8 145 -34 39 -38 37 -81 -3 -121 -28
-29 -33 -30 -89 -25 -49 4 -64 10 -83 33 -24 28 -24 28 -80 14 -52 -12 -100
-10 -139 5 -13 5 -18 2 -18 -9 0 -34 80 -51 147 -31 44 13 49 13 68 -5 12 -11
25 -20 31 -20 5 0 46 -50 92 -110 88 -119 99 -153 62 -190 -11 -11 -31 -20
-44 -20 -29 0 -82 42 -91 73 -11 36 -86 147 -96 141 -5 -3 -9 -10 -9 -16 0
-13 66 -114 91 -139 22 -22 35 -87 22 -108 -5 -9 -23 -23 -40 -31 l-30 -16 38
-43 c38 -42 39 -43 64 -27 15 10 45 16 79 16 l55 0 29 78 c41 105 78 239 97
347 22 125 30 359 16 484 -18 166 -16 164 -69 71 -54 -96 -138 -200 -194 -240
-23 -17 -43 -28 -46 -26 -6 7 17 140 45 251 42 173 138 367 237 483 47 55 53
67 36 77 -13 8 -122 -127 -172 -214 -64 -112 -116 -251 -149 -397 -16 -72 -29
-141 -29 -153 0 -36 -16 -23 -41 32 -21 45 -24 70 -26 181 -2 71 -5 131 -8
134 -3 3 -20 -12 -39 -34 -25 -29 -36 -35 -39 -24 -3 8 -10 80 -17 160 -20
257 -78 607 -127 765 -27 87 -37 105 -53 89 -6 -6 -2 -32 11 -74 31 -99 65
-251 88 -395 22 -136 61 -480 61 -536 0 -31 -1 -31 -19 -15 -16 15 -86 147
-112 211 -24 61 -53 156 -82 273 -22 86 -37 128 -44 121 -12 -12 -1597 -8
-1610 4 -12 13 -16 288 -4 320 l11 27 773 0 c426 0 776 2 779 5 3 3 1 24 -3
48 -5 23 -12 83 -16 132 l-8 90 -133 66 c-146 73 -147 77 -27 86 53 4 91 0
158 -17 88 -22 109 -22 85 -2 -48 39 -243 55 -345 28 -47 -13 -58 -12 -117 6
-58 18 -68 24 -91 64 -14 24 -44 56 -66 71 l-40 26 43 45 c127 131 314 211
530 227 110 8 123 25 19 25 -200 0 -404 -82 -557 -224 l-72 -66 -230 0 -231 0
24 -87 c28 -106 28 -104 26 -124 -1 -17 -174 -89 -215 -89 -26 0 -41 21 -141
198 l-57 102 -80 0 -80 0 -72 66 c-120 111 -268 185 -430 213 -73 13 -193 14
-200 2z m729 -485 c-33 -13 -84 -35 -113 -50 l-53 -27 -52 35 c-29 19 -68 41
-87 49 -33 14 -22 15 165 16 l200 0 -60 -23z m-320 -16 c37 -14 115 -63 115
-71 0 -7 -117 -79 -128 -79 -4 0 -20 35 -36 78 -16 42 -31 82 -33 89 -5 13 20
8 82 -17z m940 -130 c14 -27 25 -56 25 -65 0 -17 -169 -105 -201 -105 -38 0
-84 105 -56 128 23 19 171 91 189 91 11 1 27 -17 43 -49z m-849 -319 c88 -40
99 -148 23 -222 -30 -29 -36 -31 -90 -27 -48 3 -65 10 -89 33 -40 39 -54 83
-41 133 12 42 29 62 76 86 39 21 71 20 121 -3z m125 -454 c52 -35 75 -100 54
-152 -4 -11 -17 -42 -27 -69 -11 -27 -28 -62 -39 -78 -11 -15 -17 -33 -14 -38
4 -6 1 -9 -6 -8 -19 4 -99 -118 -167 -253 -50 -100 -56 -119 -45 -135 10 -16
9 -27 -4 -64 -18 -49 -11 -126 9 -114 7 4 8 3 4 -4 -9 -15 12 -54 24 -47 6 3
7 0 5 -8 -3 -7 6 -30 20 -50 64 -96 70 -134 26 -178 -29 -28 -61 -36 -96 -22
-10 3 -34 33 -55 66 -21 32 -40 55 -43 50 -3 -4 -23 -67 -46 -139 -22 -72 -49
-138 -59 -147 -26 -23 -68 -21 -93 4 -18 18 -20 29 -15 67 3 25 12 53 19 61
36 42 70 189 37 154 -13 -12 -61 -145 -55 -151 5 -6 -32 -62 -53 -79 -24 -19
-59 -16 -83 8 -34 34 -21 83 42 163 55 68 63 86 43 93 -6 2 -33 -28 -60 -68
-69 -100 -129 -125 -179 -74 -38 37 -34 80 12 119 68 58 88 83 121 151 33 67
102 144 152 170 24 13 32 12 66 -5 45 -23 148 -28 142 -7 -3 6 -30 15 -62 19
-108 14 -145 63 -70 94 21 9 34 21 34 32 0 72 76 274 159 423 28 50 48 96 44
102 -3 5 -1 7 5 3 6 -3 13 2 17 13 5 16 105 117 105 106 0 -2 10 0 23 5 38 15
73 11 108 -13z m-34 -829 c-1 -90 -3 -19 -3 157 0 176 2 249 3 163 2 -86 2
-230 0 -320z m498 -600 c15 -40 36 -80 45 -88 12 -10 21 -40 28 -92 8 -60 16
-85 36 -109 15 -17 33 -47 41 -66 18 -42 20 -179 4 -253 l-11 -50 -54 0 -54 0
0 35 c0 43 -10 44 -32 5 -9 -17 -30 -35 -45 -41 -16 -7 -114 -14 -228 -17
-254 -6 -244 -11 -257 139 -15 159 10 222 108 269 45 22 79 23 142 4 18 -5 22
-2 22 15 0 17 4 19 23 12 70 -26 219 -20 225 10 2 13 -10 15 -86 11 -56 -3
-104 0 -127 8 -36 12 -37 13 -31 51 8 51 26 89 43 89 22 0 15 18 -27 74 -22
29 -40 56 -40 59 0 4 56 7 123 7 l124 0 28 -72z m725 64 c0 -5 -18 -34 -40
-66 -45 -64 -46 -66 -24 -66 15 0 35 -39 48 -92 10 -44 -34 -61 -149 -56 -98
3 -115 -1 -90 -22 20 -17 178 -18 218 -2 42 18 34 -4 -18 -50 -52 -45 -71 -76
-58 -89 5 -5 29 15 59 51 72 87 122 100 215 53 89 -46 114 -114 98 -268 -9
-79 -13 -93 -36 -114 -27 -24 -27 -24 -229 -19 -222 5 -237 9 -273 69 l-18 30
-7 -41 -6 -41 -48 3 -47 3 -12 55 c-6 30 -12 92 -12 138 -1 86 7 114 54 177
15 20 27 58 35 113 8 52 17 82 25 82 7 0 23 28 35 63 39 105 25 97 160 97 66
0 120 -4 120 -8z"/>
<path d="M1720 1297 c0 -21 97 -111 105 -98 7 13 -2 28 -49 79 -31 33 -56 42
-56 19z"/>
<path d="M1640 1238 c0 -7 25 -26 55 -42 31 -16 60 -37 66 -47 11 -22 39 -26
39 -6 0 18 -47 61 -95 86 -45 24 -65 27 -65 9z"/>
<path d="M2705 1231 c-53 -24 -110 -80 -96 -94 8 -8 21 -2 43 20 18 17 50 39
72 50 36 17 49 34 29 40 -4 1 -26 -6 -48 -16z"/>
<path d="M3868 3720 c-35 -19 -78 -63 -78 -81 0 -18 27 -8 54 20 36 38 97 53
155 40 47 -10 56 -8 48 14 -12 31 -124 35 -179 7z"/>
<path d="M3480 3566 c0 -5 17 -45 37 -90 20 -44 49 -117 64 -161 15 -44 30
-73 32 -65 3 8 14 43 25 77 l20 61 -88 94 c-49 51 -89 89 -90 84z"/>
<path d="M3820 3403 c0 -4 -11 -109 -25 -232 -14 -123 -23 -226 -21 -228 14
-15 29 49 46 198 26 240 27 261 13 266 -7 3 -13 1 -13 -4z"/>
<path d="M4083 3174 c-25 -11 -12 -21 34 -28 87 -12 145 -73 177 -186 16 -57
28 -71 40 -51 9 14 -32 129 -61 173 -40 60 -146 111 -190 92z"/>
<path d="M2660 2961 c0 -5 15 -24 34 -42 l34 -32 -19 -27 c-11 -15 -25 -47
-30 -71 -9 -39 -8 -46 12 -61 11 -10 28 -18 37 -18 12 0 11 -5 -6 -23 -29 -30
-28 -49 4 -86 51 -61 148 -63 194 -4 29 37 27 122 -4 190 l-24 51 54 -5 c44
-5 54 -3 54 9 0 11 -17 17 -68 21 -98 10 -168 33 -211 73 -38 33 -61 43 -61
25z"/>
<path d="M2206 2925 c-46 -41 -107 -63 -204 -73 -93 -9 -94 -27 -1 -26 49 1
75 7 88 18 27 25 31 19 15 -19 -7 -19 -14 -48 -14 -65 0 -25 5 -33 30 -41 36
-13 36 -16 8 -46 l-22 -23 20 -27 c51 -67 127 -87 187 -49 51 34 58 135 16
217 -20 40 -72 89 -95 89 -20 0 -17 14 6 35 20 18 27 45 13 45 -5 -1 -25 -16
-47 -35z"/>
<path d="M2442 2608 c3 -8 28 -15 60 -18 65 -6 88 -22 88 -61 0 -36 -33 -51
-102 -48 -51 3 -72 -6 -48 -21 41 -26 159 -2 174 35 19 51 0 98 -45 114 -45
16 -132 15 -127 -1z"/>
<path d="M2274 2372 c-28 -10 -73 -34 -101 -54 -49 -35 -49 -35 -73 -16 -36
29 -51 5 -16 -27 25 -23 28 -32 23 -66 -3 -21 -1 -41 3 -44 13 -8 30 29 30 63
0 24 9 37 42 61 111 82 243 93 376 31 59 -27 76 -40 87 -67 8 -18 21 -33 31
-33 11 0 14 5 9 18 -16 38 -17 63 -1 87 20 30 20 35 2 35 -7 0 -21 -11 -29
-24 l-16 -23 -70 35 c-60 30 -82 35 -158 39 -68 3 -100 -1 -139 -15z"/>
<path d="M2329 2261 c-44 -14 -69 -31 -69 -46 0 -19 -1 -19 51 5 53 24 92 25
149 5 50 -18 60 -18 60 -5 0 29 -136 59 -191 41z"/>
<path d="M3581 1946 c-32 -34 -81 -56 -132 -59 -46 -2 -63 -21 -29 -32 38 -12
117 14 162 55 31 27 40 41 32 49 -7 8 -17 4 -33 -13z"/>
<path d="M3530 1802 c0 -15 43 -137 52 -149 5 -7 7 -17 4 -22 -4 -6 7 -17 24
-26 l31 -16 -19 38 c-11 21 -30 71 -42 111 -13 46 -26 72 -36 72 -8 0 -14 -4
-14 -8z"/>
</g>
</svg>
